<svg xmlns="http://www.w3.org/2000/svg" width="52" height="52" viewBox="0 0 52 52">
    <g fill="none" fill-rule="evenodd">
        <ellipse cx="26" cy="50.132" fill="#DCE0E9" fill-rule="nonzero" rx="26" ry="1.868"/>
        <path fill="#2536D8" fill-rule="nonzero" d="M23.354 5.82c-.021-.184-.177-.323-.363-.323h-6.64c-.186 0-.342.14-.363.324l-.541 4.731h8.448l-.54-4.731z"/>
        <path fill="#3D53FB" fill-rule="nonzero" d="M9.866 2.723l1.846-.792c.08-.034.168-.047.254-.036l4.427.544.585-1.462-4.855-.711c-.086-.013-.175-.003-.256.03L9.273 1.328c-.126.05-.227.15-.277.275-.051.126-.049.267.007.391l.213.475c.111.248.4.36.65.254z"/>
        <path fill="#3D53FB" fill-rule="nonzero" d="M19.689 0h-.036c-3.02.014-3.308 1.768-3.308 1.768v3.729h6.651v-3.73S22.71.015 19.69 0z"/>
        <path fill="#F4F2EF" fill-rule="nonzero" d="M28.68 49.16H10.662c-.568 0-1.11-.236-1.498-.651-.387-.415-.584-.973-.545-1.539l2.368-34.002c.033-.604.436-1.126 1.013-1.31l3.446-1.106h8.449l3.446 1.106c.577.184.98.706 1.014 1.31l2.367 34.002c.04.566-.158 1.124-.545 1.539-.387.415-.93.651-1.497.651z"/>
        <path fill="#292F47" fill-rule="nonzero" d="M15.132 30.086H24.21V31.854H15.132z"/>
        <path fill="#FCD58C" fill-rule="nonzero" d="M15.132 31.854H24.21V33.622H15.132z"/>
        <rect width="5.121" height="2.451" x="17.11" y="15.777" fill="#FF5F5F" fill-rule="nonzero" rx="1.226"/>
        <path fill="#333" fill-rule="nonzero" d="M21.274 49.16H10.662c-.638.003-1.247-.262-1.68-.73-.434-.466-.655-1.091-.612-1.726l1.299-14.872c.017-.134.135-.233.27-.227.138.012.24.133.228.271L8.868 46.743c-.033.496.141.984.481 1.347.34.364.816.57 1.313.57h10.612c.138 0 .25.112.25.25s-.112.25-.25.25zM28.47 18.47c-.13 0-.24-.101-.248-.232l-.367-5.252c-.028-.502-.362-.935-.84-1.09l-3.168-.856c-.089-.021-.158-.089-.182-.177-.025-.087 0-.181.066-.245.065-.063.16-.086.246-.06l3.18.859c.678.215 1.155.827 1.198 1.538l.365 5.248c.01.137-.094.257-.232.267h-.017zM12.74 16.612h-.018c-.138-.01-.241-.13-.232-.267l.123-1.774c.044-.706.514-1.314 1.187-1.532l1.256-.403c.132-.042.272.03.314.162.042.131-.03.272-.162.314l-1.256.403c-.48.152-.814.585-.84 1.087l-.124 1.777c-.008.132-.117.233-.249.233zM22.094 4.758c-.138 0-.25-.112-.25-.25V2.665c.057-.511-.219-1.002-.685-1.219-.059-.03-.103-.083-.123-.146-.02-.064-.014-.132.017-.191.065-.12.214-.168.337-.106.63.304 1.01.964.954 1.662v1.843c0 .138-.112.25-.25.25z"/>
        <path fill="#0479D6" fill-rule="nonzero" d="M41.967 26.54v20.823c0 1.16-.941 2.102-2.102 2.102H30.71c-.558 0-1.092-.222-1.487-.616-.394-.394-.615-.929-.615-1.486V26.54s.236-8.063 4.415-14.131h4.533c4.177 6.068 4.411 14.13 4.411 14.13z"/>
        <path fill="#0389E0" fill-rule="nonzero" d="M33.02 9.764H37.553000000000004V12.41H33.02z"/>
        <path fill="#042896" fill-rule="nonzero" d="M32.88 8.44h4.092c.322 0 .582.261.582.583v.741H32.88c-.365 0-.662-.296-.662-.662 0-.175.07-.343.194-.467s.293-.194.468-.194zM37.577 21.798c0 .818-.436 1.574-1.145 1.983-.708.409-1.581.409-2.29 0-.708-.41-1.145-1.165-1.145-1.983 0-1.805 1.316-4.345 1.953-5.467.068-.122.197-.197.336-.197.14 0 .269.075.337.197.637 1.122 1.954 3.662 1.954 5.467z"/>
        <path fill="#0E9787" fill-rule="nonzero" d="M40.21 37.654c-3.282 1.463-6.563-1.465-9.845 0v-7.32c3.282-1.465 6.563 1.464 9.845 0v7.32z"/>
        <path fill="#042896" fill-rule="nonzero" d="M39.173 36.883c-2.59 1.156-5.18-1.156-7.772 0v-5.78c2.591-1.155 5.181 1.157 7.772 0v5.78z"/>
        <path fill="#0E9787" fill-rule="nonzero" d="M32.903 31.52c.006.233 1.308.074 1.308.074s-.865 1.24-.664 1.5c.202.259 1.442-.952 1.442-.952s.202 1.269.433 1.24c.23-.029.288-1.038.288-1.038s1.442 1.153 1.73.865c.29-.288-.807-1.413-.807-1.413s1.01-.173 1.038-.375c.029-.202-1.355-.493-1.355-.493s1.21-1.583.548-1.756c-.663-.174-1.5.642-1.5.642s-1.067-1.421-1.24-.799c-.095.529-.095 1.07 0 1.598 0 0-1.233.416-1.22.908z"/>
        <path fill="#333" fill-rule="nonzero" d="M37.554 12.66H33.02c-.138 0-.25-.112-.25-.25s.112-.25.25-.25h4.534c.138 0 .25.112.25.25s-.112.25-.25.25zM40.21 46.839c-.138 0-.25-.112-.25-.25V41.79c0-.138.112-.25.25-.25s.25.112.25.25v4.798c0 .138-.112.25-.25.25z"/>
        <path d="M0 0H52V52H0z"/>
        <path fill="#E5484B" fill-rule="nonzero" d="M34.688 37.105c-5.66-.293-11.333-.293-16.993 0-1.05.093-1.902.886-2.07 1.926-.356 3.1-.356 6.23 0 9.329.168 1.04 1.02 1.832 2.07 1.925 5.66.293 11.332.293 16.993 0 1.049-.093 1.901-.885 2.07-1.925.355-3.1.355-6.23 0-9.33-.169-1.039-1.021-1.832-2.07-1.925z"/>
        <path fill="#333" fill-rule="nonzero" d="M26.191 50.754c-2.842 0-5.685-.073-8.508-.22-1.173-.094-2.128-.982-2.306-2.145-.356-3.119-.356-6.268 0-9.387.178-1.163 1.132-2.051 2.305-2.146 5.669-.291 11.35-.291 17.018 0h.001c1.173.094 2.127.983 2.305 2.145.356 3.12.356 6.268 0 9.387-.178 1.164-1.132 2.052-2.305 2.147-2.823.146-5.667.219-8.51.219zm0-13.617c-2.834 0-5.668.072-8.483.218-.928.085-1.682.786-1.835 1.705-.351 3.08-.351 6.19 0 9.271.153.92.908 1.62 1.836 1.704 5.652.292 11.314.292 16.966 0 .928-.084 1.682-.785 1.835-1.704.351-3.081.351-6.191 0-9.272-.153-.92-.908-1.62-1.836-1.704-2.814-.145-5.649-.218-8.483-.218z"/>
        <path fill="#FF5F5F" fill-rule="nonzero" d="M31.466 42.149L28.446 42.149 29.157 39.129 26.53 39.129 25.819 42.149 22.8 42.149 22.182 44.776 25.201 44.776 24.491 47.795 27.118 47.795 27.828 44.776 30.848 44.776z"/>
        <path fill="#FF5F5F" fill-rule="nonzero" d="M35.048 40.435c.409 1.111-.067 2.438-1.182 3.72-1.68 1.77-3.765 3.103-6.074 3.888-3.664 1.349-7.21 1.414-9.131.353-.603-.302-1.075-.815-1.326-1.44-.235-.725-.173-1.514.173-2.193.888-1.988 3.56-4.118 7.083-5.415 4.13-1.52 8.11-1.41 9.781.107.302.267.534.603.676.98z"/>
        <path fill="#333" fill-rule="nonzero" d="M27.118 48.045H24.49c-.076 0-.149-.034-.196-.094-.048-.06-.065-.138-.047-.213l.639-2.712h-2.704c-.077 0-.149-.035-.196-.095-.048-.06-.065-.138-.047-.212l.618-2.627c.026-.113.127-.193.243-.193h2.821l.665-2.827c.026-.113.127-.193.243-.193h2.628c.077 0 .149.035.196.095.048.06.065.138.047.213l-.638 2.712h2.704c.076 0 .148.035.196.094.047.06.065.139.047.213l-.618 2.627c-.026.113-.127.193-.243.193h-2.822l-.665 2.826c-.026.114-.127.194-.243.193zm-2.312-.5h2.114l.665-2.826c.026-.113.127-.193.243-.193h2.822l.5-2.127h-2.704c-.076 0-.148-.035-.196-.095-.047-.06-.065-.138-.047-.212l.639-2.713h-2.114l-.666 2.827c-.026.113-.127.193-.243.193h-2.821l-.5 2.127H25.2c.077 0 .149.034.196.094.048.06.065.139.047.213l-.638 2.712zM18.808 48.464c-.022 0-.043-.003-.064-.008-.718-.192-1.292-.731-1.528-1.436-.246-.796-.138-1.66.296-2.371.063-.123.214-.172.337-.108.123.063.171.214.108.337-.366.588-.465 1.304-.272 1.97.182.55.627.972 1.186 1.125.121.032.2.15.184.274-.016.124-.122.218-.247.218v-.001zM33.652 44.282c-.098 0-.186-.057-.227-.146-.04-.09-.025-.194.039-.268 1.17-1.349 1.51-2.277 1.169-3.204-.128-.34-.338-.642-.61-.882-.102-.093-.11-.25-.017-.353.093-.103.25-.11.353-.018.332.294.587.665.743 1.08.513 1.394-.35 2.655-1.261 3.705-.048.055-.116.086-.189.086z"/>
    </g>
</svg>
