<svg xmlns="http://www.w3.org/2000/svg" width="52" height="52" viewBox="0 0 52 52">
    <g fill="none" fill-rule="evenodd">
        <circle cx="26" cy="29.047" r="22.953" fill="#00B67A" fill-rule="nonzero"/>
        <ellipse cx="26" cy="50.132" fill="#DCE0E9" fill-rule="nonzero" rx="26" ry="1.868"/>
        <path fill="#9A6C55" fill-rule="nonzero" d="M11.15 44.152c-.027.35-.084.699-.17 1.04.06-.35.12-.7.17-1.04zM41.02 45.192c-.086-.341-.143-.69-.17-1.04.05.34.11.69.17 1.04z"/>
        <path fill="#F7CF3A" fill-rule="nonzero" d="M42.666 27.345c-1.444 2.56-1.444 5.686 0 8.245.043.083.077.17.1.26.027.096.04.195.04.294v12.422c0 .648-.525 1.174-1.173 1.174h-9.89c-.648 0-1.173-.526-1.173-1.174V36.144c0-.1.014-.198.04-.293.023-.09.057-.178.1-.261 1.443-2.559 1.443-5.686 0-8.245-.043-.083-.077-.17-.1-.26-.027-.096-.04-.195-.04-.294v-9.354c0-.248.078-.49.222-.69l3.828-5.283h4.232l3.736 5.229c.067.093.12.197.155.307.042.12.064.248.063.375v9.416c0 .1-.014.198-.04.294-.023.09-.057.177-.1.26z"/>
        <rect width="5.082" height="1" x="34.157" y="10.668" fill="#FFB444" fill-rule="nonzero" rx=".235"/>
        <path fill="#B32523" fill-rule="nonzero" d="M35.055 7.81h3.287c.389 0 .704.315.704.704v2.154H34.35V8.515c0-.187.074-.366.206-.499.132-.132.311-.206.498-.206z"/>
        <ellipse cx="36.699" cy="20.571" fill="#FEFFEC" fill-rule="nonzero" rx="4.264" ry="1.472"/>
        <path fill="#AF7A00" fill-rule="nonzero" d="M42.666 35.59c.043.083.077.17.1.26H30.61c.024-.09.058-.177.101-.26 1.443-2.559 1.443-5.686 0-8.245-.043-.083-.077-.17-.1-.26h12.157c-.024.09-.058.177-.102.26-1.443 2.559-1.443 5.686 0 8.245zM42.743 17h-12.09c.037-.09.083-.175.14-.253l3.827-5.283h4.232l3.736 5.229c.067.093.12.197.155.307z"/>
        <path fill="#333" fill-rule="nonzero" d="M41.306 31.718c-.138 0-.25-.112-.25-.25.02-1.572.457-3.11 1.267-4.456l-.045-4.967c0-.066.025-.13.071-.178.047-.047.11-.074.176-.075h.003c.137 0 .248.11.25.248l.046 5.043c0 .05-.014.1-.043.141-.777 1.281-1.2 2.746-1.225 4.244 0 .138-.112.25-.25.25zM40.83 48.787h-.822c-.138 0-.25-.112-.25-.25s.112-.25.25-.25h.821c.475 0 .86-.385.86-.86V44.01c0-.138.112-.25.25-.25s.25.112.25.25v3.418c0 .75-.61 1.359-1.36 1.36zM40.456 15.35c-.085 0-.163-.043-.21-.114l-1.603-2.44c-.051-.074-.058-.17-.018-.25.04-.082.121-.135.211-.14.09-.004.176.04.224.117l1.605 2.439c.05.077.054.175.01.256-.043.08-.128.131-.22.131zM40.008 36.365h-9.23c-.137 0-.25-.112-.25-.25s.113-.25.25-.25h9.23c.138 0 .25.112.25.25s-.112.25-.25.25zM37.468 7.811H38.468V10.668H37.468zM35.502 7.811H36.502V10.668H35.502z"/>
        <path fill="#FFF" fill-rule="nonzero" d="M28.644 21.37s1.7-1.55 1.412-2.28c-.559-.814-2.48-.194-2.48-.194-.163-1.888-2.136-1.48-2.136-1.48s1.14-2.039.426-2.57c-1.005-.66-3.06 1.485-3.06 1.485-1.82-1.817-3.178.46-3.178.46-.379-.623-.93-1.123-1.588-1.44-1.139-.675-1.01 2.539-1.01 2.539-.573-.548-1.197-1.039-1.864-1.466-1.824-1.225-1.43 2.647-1.43 2.647-.307-.54-.771-.972-1.33-1.241-1-.528-1.134 2.469-1.134 2.469-.463-.25-1.018-.259-1.49-.025-.47.235-.798.683-.88 1.202-2.92-2.778-1.428 1.334-1.428 1.334s-1.828-.622-2.112-.01c-.272.59.533 1.467.954 1.775.301.22-1.073.71-1.123 1.421-.182 2.586 8.94.522 13.812 1.33 10.875 1.802 12.434-.175 12.434-.175s1.672-1.495 1.405-2.36c-.267-.865-2.167.143-2.167.143s1.028-1.462-.965-1.945c0 0 1.553-.563 1.345-1.236-.207-.673-2.413-.383-2.413-.383z"/>
        <path fill="#333" fill-rule="nonzero" d="M26.691 28.329c-2.592-.044-5.176-.297-7.728-.757-2.241-.24-4.5-.267-6.747-.079-3.247.152-6.051.285-6.961-.646-.228-.228-.342-.547-.312-.868.036-.506.528-.877.887-1.148.064-.05.144-.11.204-.16-.497-.418-1.215-1.293-.899-1.976.272-.586 1.284-.436 1.95-.263-.22-.727-.43-1.77.05-2.083.345-.227.86-.018 1.647.676.145-.371.405-.686.742-.898.465-.256 1.013-.312 1.52-.156.054-.674.238-2.034.825-2.37.203-.116.453-.114.654.007.339.177.65.403.922.671-.004-.794.103-1.886.683-2.234.39-.189.857-.122 1.178.17.516.332 1.007.7 1.47 1.102.018-.747.132-1.91.657-2.223.232-.13.519-.115.735.042.56.31 1.059.722 1.47 1.213.372-.5.92-.843 1.532-.96.604-.05 1.2.167 1.63.592.562-.546 2.206-2 3.203-1.345.68.505.2 1.79-.133 2.492h.005c.45-.014.892.116 1.262.37.345.265.576.65.647 1.079.606-.154 1.955-.392 2.478.371.255.636-.426 1.539-.953 2.11.767-.04 1.805.03 1.987.62.176.567-.41 1.013-.91 1.281.33.142.593.408.731.74.086.238.098.497.037.743.47-.231 1.005-.295 1.516-.18.2.08.352.247.412.453.306.99-1.294 2.457-1.477 2.62-.026.04-.845.994-4.914.994zM15.94 26.874c1.039-.015 2.077.054 3.105.205 10.441 1.73 12.185-.07 12.202-.089.625-.563 1.517-1.608 1.358-2.126-.017-.064-.064-.116-.126-.139-.373-.153-1.297.222-1.685.429-.102.054-.228.031-.305-.055-.076-.087-.084-.214-.018-.309.186-.266.25-.599.177-.915-.111-.294-.446-.51-.995-.643-.107-.026-.184-.119-.19-.23-.007-.11.06-.21.164-.248.557-.203 1.28-.638 1.191-.928-.084-.27-1.2-.334-2.142-.208-.108.014-.213-.044-.26-.143-.046-.099-.022-.216.059-.29.633-.579 1.5-1.615 1.348-2.002-.343-.49-1.719-.194-2.17-.049-.073.024-.152.013-.215-.03-.064-.042-.104-.11-.11-.186-.007-.394-.185-.765-.488-1.016-.405-.243-.886-.33-1.35-.24-.096.017-.193-.02-.252-.098-.058-.08-.064-.184-.017-.27.416-.745.862-1.975.495-2.248-.664-.437-2.235.94-2.73 1.457-.048.05-.13.055-.18.077-.067 0-.13-.026-.178-.073-.343-.414-.86-.643-1.396-.62-.582.147-1.081.518-1.39 1.032-.049.08-.138.128-.232.122-.094-.006-.176-.065-.213-.152-.365-.568-.879-1.026-1.485-1.323-.149-.088-.204-.054-.224-.042-.303.182-.45 1.364-.41 2.356.004.103-.055.198-.15.239-.094.041-.204.02-.277-.052-.56-.535-1.17-1.015-1.82-1.433-.288-.194-.503-.246-.647-.16-.43.258-.493 1.659-.4 2.57.012.122-.065.235-.183.267-.118.032-.242-.026-.293-.136-.287-.487-.711-.879-1.22-1.125-.105-.056-.148-.03-.172-.016-.345.197-.559 1.474-.595 2.275-.004.079-.044.151-.11.195-.064.045-.147.056-.221.03-.449-.201-.964-.194-1.407.019-.329.227-.556.572-.635.964-.015.091-.08.167-.167.196-.088.03-.184.008-.252-.056-1.065-1.014-1.322-.892-1.323-.89-.149.098-.048.992.302 1.957.033.09.011.191-.056.26-.068.069-.168.093-.26.062-.763-.26-1.696-.374-1.804-.142-.188.407.47 1.172.875 1.47.09.061.144.162.145.271.002.221-.2.374-.478.584-.282.213-.67.506-.689.785-.02.178.042.357.17.483.753.77 3.715.63 6.58.496 1.26-.058 2.54-.119 3.749-.119z"/>
        <path fill="#333" fill-rule="nonzero" d="M15.833 21.197c-.109 0-.205-.07-.238-.174-.033-.103.004-.216.092-.28l1.631-1.167c.113-.074.263-.046.342.063.078.11.056.261-.05.343l-1.631 1.168c-.043.03-.094.047-.146.047zM23.807 21.067c-.073 0-.141-.03-.189-.085L22.3 19.47c-.059-.068-.077-.161-.048-.246.029-.084.1-.147.188-.164.088-.018.178.013.237.08l1.318 1.512c.065.074.08.179.04.268-.04.09-.13.147-.228.146zM10.293 25.773c-.072 0-.14-.03-.188-.085l-1.319-1.511c-.059-.068-.077-.161-.048-.246.029-.084.1-.147.188-.164.088-.018.178.013.237.08l1.319 1.512c.064.074.08.179.04.268-.041.09-.13.146-.229.146zM12.197 23.823c-.129 0-.236-.098-.25-.226-.012-.128.075-.244.2-.27l1.967-.396c.133-.023.26.064.288.197.026.133-.058.263-.19.293l-1.965.397c-.017.003-.033.005-.05.005zM21.197 25.497c-.094 0-.18-.053-.223-.138l-.905-1.79c-.04-.08-.035-.174.014-.25.049-.074.134-.117.223-.112.089.005.169.057.21.137l.904 1.79c.04.077.036.17-.01.244-.045.074-.126.119-.213.119zM26.39 25.447c-.133.001-.244-.102-.252-.236-.007-.133.091-.248.224-.262l1.992-.23c.136-.013.259.084.277.22.016.137-.082.261-.22.277l-1.992.23-.029.001z"/>
        <path fill="#9A6C55" fill-rule="nonzero" d="M32.784 50.031c-3.41.386-6.84.572-10.272.559-2.453.122-4.907.122-7.36 0-3.433.013-6.863-.173-10.273-.559-.358-.009-.684-.211-.851-.529-.167-.317-.15-.7.046-1 .442-.595.78-1.26.998-1.967.006-.006.01-.015.009-.023.078-.26.13-.526.155-.796V45.7c1.218-6.45 1.044-11.186-.54-18.149-.128-.543.376-1.11 1.145-1.247 8.593-1.523 17.388-1.523 25.982 0 .769.138 1.272.704 1.144 1.247-1.584 6.963-1.758 11.699-.54 18.149v.015c.025.27.077.537.156.796-.001.009.002.017.01.023.217.708.555 1.373.997 1.966.196.301.213.685.046 1.002-.167.318-.493.52-.852.53z"/>
        <path fill="#333" fill-rule="nonzero" d="M8.543 39.396c-.102 0-.193-.06-.232-.154-.038-.094-.017-.201.055-.273l6.184-6.184c.063-.065.156-.09.243-.068.088.023.156.091.179.179.023.087-.003.18-.068.243l-6.185 6.184c-.047.047-.11.073-.176.073zM10.984 41.837c-.1 0-.192-.06-.23-.154-.04-.093-.018-.2.054-.272l6.184-6.184c.098-.095.254-.094.35.003.097.096.098.252.003.35l-6.184 6.184c-.047.047-.11.073-.177.073z"/>
        <path fill="#333" fill-rule="nonzero" d="M17.169 39.396c-.067 0-.13-.026-.177-.073l-6.184-6.184c-.065-.063-.091-.156-.069-.243.023-.088.092-.156.179-.179.087-.023.18.003.243.068l6.184 6.184c.072.072.093.18.054.273-.038.093-.13.154-.23.154zM14.727 41.837c-.066 0-.13-.026-.177-.073L8.366 35.58c-.095-.098-.094-.254.003-.35.096-.097.252-.098.35-.003l6.185 6.184c.071.071.093.179.054.272-.039.093-.13.154-.23.154z"/>
        <path fill="#8C584B" fill-rule="nonzero" d="M33.92 32.506c.749.04 1.407-.49 1.53-1.229.148-.88.311-1.781.489-2.711.095-.883-.523-1.683-1.4-1.816-10.413-2.224-21.178-2.224-31.59 0-.878.132-1.496.933-1.4 1.816.207 1.087.393 2.134.56 3.151.12.748.784 1.284 1.54 1.243 5.032-.272 10.35-2.64 15.382-2.75 5.059-.112 9.83 2.034 14.889 2.296z"/>
        <path fill="#333" fill-rule="nonzero" d="M29.335 48.74H26.39c-.138 0-.25-.112-.25-.25 0-.137.112-.249.25-.249h2.945c.313 0 .61-.137.812-.375.202-.238.29-.553.24-.861l-.587-3.613c-.022-.136.07-.264.206-.286.136-.022.264.07.286.206l.587 3.613c.074.453-.055.915-.352 1.264-.298.35-.733.551-1.192.551z"/>
        <path fill="#FCD58C" fill-rule="nonzero" d="M25.057 47.51c-.098.767.157 1.538.695 2.096 1.084 1.033 2.763 1.112 3.94.184 1.101-.705 2.547-2.266 2.279-3.712-.047-.29-.21-.55-.453-.716-.713-.482-1.351.433-1.782.877-.508.676-1.466.817-2.147.316-.366-.275-.832-.382-1.282-.294-.449.089-.84.364-1.074.757-.085.153-.144.32-.176.491z"/>
        <path fill="#333" fill-rule="nonzero" d="M27.68 50.681c-.8.01-1.566-.319-2.11-.904-.595-.614-.874-1.467-.759-2.314.037-.198.106-.39.203-.566.242-.44.661-.754 1.151-.862.544-.123 1.114-.008 1.568.316.584.419 1.396.292 1.824-.286.058-.06.12-.129.186-.202.42-.465 1.12-1.245 1.915-.708.298.204.5.52.558.877.297 1.6-1.266 3.25-2.39 3.969-.635.427-1.38.663-2.145.68zm-2.377-3.125c-.082.689.15 1.379.63 1.88 1.004.943 2.549 1.005 3.624.144.97-.621 2.418-2.11 2.168-3.456-.034-.226-.16-.426-.347-.555-.398-.27-.793.106-1.264.629-.07.078-.137.151-.199.216-.595.764-1.689.917-2.47.345-.338-.241-.763-.327-1.168-.236-.35.077-.652.301-.825.616-.072.13-.122.27-.15.417z"/>
        <path fill="#FCD58C" fill-rule="nonzero" d="M18.718 47.361c1.102-1.27 2.81-1.836 4.451-1.476 2.762.626 2.982 2.585 2.983 2.596.123.707-.149 1.425-.708 1.875-.56.45-1.32.56-1.984.287-.623-.282-.99-.957-1.638-1.186-.573-.14-1.177-.067-1.7.206-.508.217-1.508 1.149-2.025.713-.806-.68-.098-2.053.38-2.712.077-.105.157-.206.241-.303z"/>
        <path fill="#333" fill-rule="nonzero" d="M24.249 51.069c-.308-.002-.613-.07-.893-.198-.31-.159-.592-.368-.834-.619-.22-.237-.487-.428-.783-.56-.514-.123-1.055-.052-1.52.2-.163.082-.32.175-.471.278-.578.37-1.295.833-1.812.396-.86-.724-.355-2.095.34-3.05.08-.11.164-.216.253-.32 1.165-1.335 2.964-1.93 4.695-1.555 2.957.67 3.175 2.797 3.177 2.818.1.856-.264 1.7-.956 2.213-.346.257-.765.395-1.196.397zm-2.936-1.945c.201-.001.401.031.592.097.362.152.689.379.958.666.203.212.44.39.7.528.515.253 1.129.196 1.589-.147.543-.413.829-1.082.752-1.76-.01-.073-.242-1.802-2.79-2.38-1.552-.335-3.163.2-4.207 1.396-.08.092-.155.187-.227.287-.457.628-1.06 1.835-.422 2.373.233.2.804-.168 1.22-.435.173-.12.356-.225.546-.316.405-.188.843-.293 1.289-.309z"/>
        <path fill="#FCD58C" fill-rule="nonzero" d="M24.426 49.767s-1.857-2.708-4.443-1.142"/>
        <path fill="#333" fill-rule="nonzero" d="M24.426 50.017c-.082 0-.159-.041-.206-.109-.07-.102-1.758-2.489-4.108-1.07-.118.071-.27.033-.342-.084-.07-.118-.034-.271.084-.343 2.754-1.668 4.759 1.185 4.778 1.214.038.055.052.122.04.187-.012.065-.05.123-.104.16-.042.03-.091.044-.142.045z"/>
        <path fill="#FCD58C" fill-rule="nonzero" d="M39.918 48.31c-1.101 1.27-2.81 1.837-4.451 1.476-2.762-.625-2.982-2.584-2.983-2.595-.123-.707.149-1.426.709-1.875.56-.45 1.32-.56 1.984-.287.623.281.989.957 1.638 1.186.572.14 1.176.066 1.699-.207.508-.216 1.508-1.148 2.025-.712.806.68.099 2.053-.38 2.712-.077.105-.157.206-.241.303z"/>
        <path fill="#333" fill-rule="nonzero" d="M36.436 50.144c-.345 0-.688-.038-1.024-.114-2.884-.653-3.165-2.72-3.176-2.809-.103-.858.261-1.706.955-2.222.606-.446 1.41-.522 2.089-.198.31.158.591.367.833.617.22.239.488.43.785.56.513.124 1.054.053 1.518-.2.164-.08.321-.173.472-.276.578-.37 1.297-.831 1.812-.397.86.725.355 2.096-.34 3.05-.08.11-.165.217-.253.319-.927 1.058-2.264 1.667-3.671 1.67zm-2.05-5.042c-.325.001-.64.107-.901.301-.544.413-.83 1.082-.753 1.76.009.072.246 1.803 2.79 2.38 1.552.333 3.162-.201 4.207-1.396.08-.092.156-.187.228-.286.457-.628 1.06-1.835.421-2.374-.233-.196-.827.184-1.22.436-.173.119-.356.224-.545.316-.578.304-1.25.38-1.881.211-.363-.151-.69-.378-.96-.665-.202-.212-.438-.39-.698-.528-.215-.1-.45-.153-.688-.155z"/>
        <path fill="#FCD58C" fill-rule="nonzero" d="M34.21 45.905s1.857 2.707 4.443 1.142"/>
        <path fill="#333" fill-rule="nonzero" d="M37.044 47.784c-1.22-.106-2.33-.741-3.04-1.737-.051-.074-.059-.169-.02-.25.038-.08.117-.134.206-.14.089-.008.175.033.226.107.07.102 1.757 2.491 4.108 1.069.076-.047.172-.05.25-.007.079.043.129.125.13.215.002.09-.045.173-.122.22-.52.332-1.122.513-1.738.523z"/>
        <path fill="#FCD58C" fill-rule="nonzero" d="M29.24 44.888c1.102-1.27 2.81-1.836 4.451-1.475 2.762.625 2.982 2.584 2.983 2.595.123.708-.148 1.426-.708 1.875-.56.45-1.32.56-1.984.287-.624-.282-.99-.957-1.638-1.186-.573-.14-1.177-.066-1.7.207-.508.216-1.508 1.148-2.025.712-.806-.68-.098-2.053.38-2.712.077-.105.157-.206.242-.303z"/>
        <path fill="#333" fill-rule="nonzero" d="M34.772 48.596c-.309-.002-.613-.07-.893-.198-.31-.159-.592-.367-.835-.618-.22-.238-.487-.429-.783-.56-.514-.123-1.055-.052-1.519.2-.163.081-.321.174-.472.277-.578.37-1.298.831-1.811.396-.86-.724-.355-2.095.339-3.05.08-.11.165-.217.254-.32 1.164-1.335 2.963-1.931 4.695-1.555 2.956.67 3.174 2.797 3.176 2.818.1.856-.264 1.7-.955 2.214-.347.256-.766.395-1.197.396zm-2.937-1.944c.201-.002.401.03.592.096.363.152.69.38.958.666.204.213.44.39.7.528.515.254 1.13.197 1.59-.147.543-.412.829-1.081.751-1.76-.009-.073-.241-1.802-2.79-2.379-1.551-.335-3.163.2-4.206 1.396-.08.092-.155.187-.227.286-.457.628-1.06 1.835-.421 2.373.233.198.826-.182 1.219-.434.174-.12.357-.226.547-.317.404-.188.842-.292 1.287-.308z"/>
        <path fill="#FCD58C" fill-rule="nonzero" d="M34.949 47.294s-1.858-2.707-4.444-1.141"/>
        <path fill="#333" fill-rule="nonzero" d="M34.948 47.544c-.082 0-.16-.04-.206-.108-.07-.102-1.757-2.491-4.108-1.07-.076.049-.173.052-.252.009-.08-.043-.13-.126-.131-.217-.002-.09.046-.174.124-.22 2.756-1.666 4.76 1.186 4.78 1.214.037.055.051.122.04.187-.013.066-.05.123-.105.161-.042.028-.091.044-.142.044z"/>
        <path fill="#FCD58C" fill-rule="nonzero" d="M29.013 41.532c-.098.768.157 1.539.695 2.096 1.084 1.033 2.764 1.112 3.94.184 1.101-.705 2.547-2.266 2.279-3.712-.047-.29-.21-.549-.453-.716-.712-.482-1.35.433-1.782.877-.508.676-1.466.817-2.147.316-.366-.275-.832-.382-1.281-.293-.45.088-.84.363-1.075.756-.085.154-.144.32-.176.492z"/>
        <path fill="#333" fill-rule="nonzero" d="M31.637 44.704c-.8.01-1.567-.32-2.112-.905-.594-.614-.873-1.467-.757-2.314.037-.198.105-.39.202-.566.242-.44.66-.753 1.15-.861.544-.123 1.114-.009 1.569.315.583.419 1.396.291 1.823-.286.058-.06.12-.129.186-.202.42-.465 1.121-1.246 1.916-.708.298.204.5.521.558.878.297 1.6-1.267 3.25-2.39 3.968-.635.427-1.38.663-2.145.68zm-2.378-3.126c-.082.69.15 1.379.631 1.88 1.003.943 2.548 1.005 3.623.144.97-.621 2.418-2.108 2.168-3.456-.034-.225-.16-.426-.347-.555-.402-.27-.793.108-1.264.629-.07.078-.136.151-.199.215-.594.765-1.689.918-2.47.346-.338-.24-.763-.327-1.168-.236-.351.077-.652.302-.825.616-.072.13-.122.271-.149.417z"/>
        <path fill="#FCD58C" fill-rule="nonzero" d="M30.862 43.137c.568.193 1.184.193 1.753 0 .871-.419 1.633-1.036 2.223-1.801"/>
        <path fill="#333" fill-rule="nonzero" d="M31.682 43.523c-.315.008-.629-.045-.923-.158-.082-.036-.138-.114-.147-.203-.009-.088.03-.175.103-.228.072-.052.167-.062.248-.025.516.165 1.071.16 1.584-.012.825-.398 1.543-.986 2.095-1.717.056-.07.144-.105.233-.092.088.014.163.073.196.156.032.083.018.178-.037.248-.62.808-1.427 1.455-2.351 1.886-.326.094-.662.143-1 .145z"/>
        <path fill="#8C584B" fill-rule="nonzero" d="M31.97 41.12c-.747 2.234-1.943 2.872-3.033 2.507-1.09-.365-1.662-1.594-.915-3.828.748-2.234 3.244-4.39 3.622-4.264.51.17 1.074 3.35.327 5.585z"/>
        <path fill="#333" fill-rule="nonzero" d="M29.517 43.975c-.225-.001-.447-.039-.66-.111-.642-.207-1.135-.727-1.307-1.38-.2-.924-.119-1.888.235-2.765.447-1.164 1.13-2.222 2.006-3.11.237-.248 1.436-1.48 1.933-1.31.554.185.755 1.753.804 2.23.143 1.232.034 2.48-.32 3.67-.598 1.787-1.575 2.776-2.691 2.776zm2.059-8.187c-1.506.983-2.665 2.413-3.316 4.09-.317.781-.396 1.639-.23 2.465.126.496.498.892.986 1.046 1.106.374 2.095-.486 2.718-2.349.7-2.094.195-4.886-.158-5.252z"/>
        <path fill="#333" fill-rule="nonzero" d="M29.996 42.442c-.105 0-.198-.064-.234-.162-.037-.098-.01-.208.07-.276 1.51-1.314 1.317-4.722 1.315-4.756-.009-.138.096-.256.234-.265.067-.01.135.011.186.056.05.045.08.11.079.178.01.15.209 3.69-1.486 5.164-.046.04-.104.062-.164.061z"/>
        <path fill="#9A6C55" fill-rule="nonzero" d="M30.202 38.298c-.591.872-1 1.854-1.2 2.888"/>
        <path fill="#333" fill-rule="nonzero" d="M29.002 41.436c-.076 0-.149-.034-.196-.094-.048-.06-.065-.138-.048-.213.207-1.07.632-2.087 1.248-2.986.086-.109.244-.127.352-.041.108.086.126.243.04.352-.565.843-.957 1.792-1.152 2.789-.027.113-.128.193-.244.193z"/>
        <path fill="#8C584B" fill-rule="nonzero" d="M23.136 46.796c-2.344-.24-3.227-1.268-3.11-2.412.118-1.144 1.192-1.97 3.536-1.73 2.343.24 4.993 2.204 4.952 2.6-.055.536-3.034 1.782-5.378 1.542z"/>
        <path fill="#333" fill-rule="nonzero" d="M23.71 47.073c-.2 0-.4-.009-.6-.03-2.236-.228-3.482-1.232-3.334-2.685.061-.672.461-1.266 1.06-1.577.858-.398 1.816-.53 2.75-.376 2.21.227 5.247 2.185 5.176 2.875-.076.749-2.869 1.793-5.052 1.793zm-.915-4.21c-.593-.025-1.182.097-1.716.356-.456.23-.76.681-.805 1.19-.119 1.159.934 1.938 2.887 2.138 2.202.222 4.81-.878 5.091-1.303-1.29-1.254-2.939-2.073-4.717-2.341-.246-.026-.492-.04-.74-.04z"/>
        <path fill="#333" fill-rule="nonzero" d="M24.162 46.005c-.936.048-1.863-.196-2.653-.7-.072-.053-.11-.14-.1-.23.01-.088.066-.165.148-.2.082-.036.177-.026.249.028 1.608 1.183 4.894.252 4.927.242.086-.025.179-.003.243.06.065.06.091.152.07.24-.021.086-.087.155-.173.18-.884.24-1.795.369-2.711.38z"/>
        <path fill="#9A6C55" fill-rule="nonzero" d="M25.502 44.452c-.98-.386-2.028-.57-3.08-.538"/>
        <path fill="#333" fill-rule="nonzero" d="M25.502 44.703c-.038 0-.075-.009-.108-.025-.948-.367-1.959-.542-2.975-.514-.138-.001-.25-.113-.249-.251.001-.138.113-.25.251-.25h.002c1.09-.032 2.175.16 3.188.565.105.05.16.167.135.28-.026.114-.128.195-.244.195z"/>
        <path fill="#8C584B" fill-rule="nonzero" d="M28.286 48.248c-2.344-.24-3.228-1.268-3.11-2.411.118-1.144 1.191-1.97 3.535-1.73 2.344.24 4.994 2.204 4.953 2.6-.055.535-3.034 1.782-5.378 1.541z"/>
        <path fill="#333" fill-rule="nonzero" d="M28.897 48.528c-.212 0-.425-.01-.636-.03-2.237-.23-3.483-1.234-3.334-2.686.06-.673.46-1.268 1.06-1.578.858-.4 1.816-.531 2.75-.376 1.233.182 2.415.616 3.473 1.276.294.176 1.755 1.082 1.702 1.6-.06.58-1.546 1.12-2 1.272-.972.33-1.989.507-3.015.522zM28.312 48c2.198.231 4.81-.879 5.09-1.304-1.29-1.253-2.939-2.072-4.717-2.34-.832-.139-1.686-.029-2.456.315-.456.231-.761.682-.805 1.191-.119 1.158.934 1.937 2.887 2.138z"/>
        <path fill="#333" fill-rule="nonzero" d="M29.311 47.458c-.935.048-1.863-.197-2.653-.7-.11-.083-.133-.239-.052-.35.082-.11.238-.134.35-.053 1.608 1.186 4.895.252 4.927.242.086-.025.179-.002.243.06.065.062.091.153.07.24-.021.087-.087.155-.173.18-.884.242-1.795.37-2.712.38z"/>
        <path fill="#9A6C55" fill-rule="nonzero" d="M30.652 45.905c-.98-.386-2.028-.57-3.08-.539"/>
        <path fill="#333" fill-rule="nonzero" d="M30.651 46.155c-.037 0-.074-.008-.107-.025-.948-.366-1.959-.541-2.975-.514-.138 0-.25-.113-.249-.25 0-.139.113-.25.251-.25h.002c1.09-.032 2.175.16 3.188.564.105.051.16.168.135.281-.027.114-.128.195-.245.194z"/>
        <path fill="#8C584B" fill-rule="nonzero" d="M33.576 45.45c1.94-1.336 3.279-1.127 3.931-.18.653.946.371 2.272-1.569 3.609-1.94 1.337-5.23 1.56-5.457 1.232-.305-.443 1.154-3.323 3.095-4.66z"/>
        <path fill="#333" fill-rule="nonzero" d="M31.225 50.495c-.43 0-.822-.057-.95-.243-.332-.48.45-1.855.698-2.265.626-1.071 1.463-2.004 2.46-2.742.742-.58 1.64-.925 2.58-.991h.013c.673-.008 1.305.32 1.687.873.382.554.463 1.262.216 1.888-.395.86-1.039 1.581-1.849 2.07-1.057.662-2.239 1.098-3.472 1.28-.457.078-.92.121-1.383.13zm-.537-.545c1.794.12 3.58-.327 5.108-1.277.722-.435 1.301-1.072 1.665-1.833.19-.473.13-1.009-.16-1.428-.289-.42-.769-.667-1.278-.658h-.01c-.837.072-1.634.385-2.295.903-1.82 1.253-3.093 3.788-3.03 4.293z"/>
        <path fill="#333" fill-rule="nonzero" d="M31.7 49.153c-.093 0-.178-.05-.221-.132-.044-.08-.04-.18.011-.256.083-.125 2.051-3.076 4.292-3.235.136-.007.254.095.267.232.005.066-.017.131-.06.181-.044.05-.106.081-.172.086-1.997.141-3.89 2.983-3.909 3.011-.046.07-.125.113-.209.113z"/>
        <path fill="#9A6C55" fill-rule="nonzero" d="M33.294 48.768c.997-.34 1.914-.88 2.695-1.587"/>
        <path fill="#333" fill-rule="nonzero" d="M33.294 49.019c-.125 0-.231-.094-.247-.218-.016-.125.063-.242.184-.274.959-.335 1.842-.858 2.597-1.538.068-.06.164-.08.25-.049.086.03.148.105.163.195.015.09-.02.18-.092.237-.808.732-1.758 1.29-2.792 1.638-.02.006-.041.009-.063.009z"/>
        <path fill="#FCD58C" fill-rule="nonzero" d="M23.13 41.397c.351 1.644 1.573 2.964 3.185 3.442 2.72.786 3.859-.823 3.865-.832.45-.56.559-1.32.285-1.985-.273-.664-.885-1.127-1.598-1.209-.682-.054-1.329.36-2.007.247-.57-.154-1.063-.51-1.389-1.001-.34-.435-.766-1.734-1.429-1.602-1.035.206-1.078 1.75-.976 2.559.015.128.037.255.064.381z"/>
        <path fill="#333" fill-rule="nonzero" d="M27.737 45.306c-.505-.005-1.008-.082-1.492-.227-1.697-.509-2.984-1.899-3.36-3.63-.028-.132-.051-.267-.068-.402-.147-1.171.073-2.616 1.175-2.835.665-.127 1.07.619 1.396 1.223.082.163.176.32.28.47.284.445.723.768 1.233.909.323.027.648-.011.956-.112.333-.101.68-.148 1.029-.138.752.043 1.418.498 1.733 1.182.358.786.268 1.703-.235 2.405-.654.776-1.633 1.203-2.647 1.155zm-3.606-6.607c-.013 0-.027.001-.04.004-.819.162-.874 1.51-.778 2.281.015.122.036.242.062.36.336 1.552 1.488 2.798 3.009 3.254 2.509.724 3.549-.677 3.592-.737.394-.556.467-1.28.19-1.903-.237-.522-.747-.868-1.32-.896-.294-.005-.586.037-.867.125-.374.12-.77.162-1.16.12-.635-.157-1.187-.548-1.545-1.094-.122-.172-.23-.352-.325-.54-.212-.392-.528-.974-.818-.974z"/>
        <path fill="#FCD58C" fill-rule="nonzero" d="M29.29 42.047s-2.934 1.474-4.442-1.146"/>
        <path fill="#333" fill-rule="nonzero" d="M27.462 42.704c-1.186.027-2.285-.624-2.831-1.679-.045-.077-.044-.172 0-.25.045-.077.128-.124.217-.124.09 0 .172.048.216.125 1.375 2.388 4.001 1.103 4.113 1.048.124-.062.274-.013.336.111s.012.274-.111.336c-.61.276-1.27.424-1.94.433z"/>
        <path d="M0 0H52V52H0z"/>
    </g>
</svg>
